<svg xmlns="http://www.w3.org/2000/svg" height="937.5pt" version="1.1" viewBox="0 0 937.5 937.5" width="937.5pt" fill="#FE6C32">
<g id="surface1">
<path d="M 781.25 165.53125 L 781.25 78.125 C 781.195312 35 746.25 0.0546875 703.125 0 L 78.125 0 C 35 0.0546875 0.0546875 35 0 78.125 L 0 421.875 C 0.121094 461.777344 30.367188 495.148438 70.0625 499.195312 L 128.796875 651.660156 C 144.3125 691.917969 189.523438 711.972656 229.785156 696.476562 L 596.5625 555.1875 C 571.21875 621.386719 578.429688 695.648438 616.023438 755.738281 L 625 770.09375 L 625 921.875 C 625 930.507812 631.992188 937.5 640.625 937.5 L 921.875 937.5 C 930.507812 937.5 937.5 930.507812 937.5 921.875 L 937.5 406.113281 C 937.351562 352.078125 915.839844 300.304688 877.636719 262.089844 Z M 781.25 258.976562 L 828.671875 382.078125 C 837.964844 406.242188 825.921875 433.355469 801.761719 442.65625 L 774.65625 453.125 C 778.984375 443.273438 781.226562 432.625 781.25 421.875 Z M 31.25 421.875 L 31.25 78.125 C 31.25 52.242188 52.242188 31.25 78.125 31.25 L 703.125 31.25 C 729.007812 31.25 750 52.242188 750 78.125 L 750 177.4375 L 749.863281 177.4375 L 750 177.792969 L 750 421.875 C 749.878906 424.601562 749.523438 427.304688 748.9375 429.96875 L 605.8125 286.828125 C 573.640625 255.398438 522.351562 255.15625 489.890625 286.257812 C 457.421875 317.378906 455.472656 368.628906 485.5 402.105469 L 546.515625 468.75 L 78.125 468.75 C 52.242188 468.75 31.25 447.757812 31.25 421.875 Z M 231.421875 500 L 120.3125 542.777344 L 103.875 500 Z M 218.546875 667.308594 C 194.390625 676.621094 167.261719 664.578125 157.953125 640.421875 L 131.59375 571.875 L 318.109375 500 L 318.109375 499.90625 L 575.15625 499.90625 L 595.464844 522.046875 Z M 906.25 906.25 L 656.25 906.25 L 656.25 781.25 L 906.25 781.25 Z M 906.25 750 L 649.296875 750 L 642.519531 739.171875 C 604.421875 678.289062 602.90625 601.390625 638.5625 539.0625 C 641.9375 533.164062 641.109375 525.757812 636.515625 520.75 L 508.472656 381.0625 C 489.378906 360.164062 490.453125 327.855469 510.894531 308.28125 C 531.34375 288.703125 563.667969 289.023438 583.714844 308.992188 L 832.703125 557.921875 L 854.796875 535.828125 L 796.984375 478.015625 L 813.015625 471.765625 C 853.242188 456.246094 873.289062 411.074219 857.8125 370.824219 L 804.925781 233.496094 L 855.542969 284.21875 C 887.886719 316.554688 906.125 360.375 906.25 406.113281 Z M 906.25 750 "/>
<path d="M 178.125 218.75 C 200.5625 218.75 218.75 200.5625 218.75 178.125 L 218.75 103.125 C 218.75 80.6875 200.5625 62.5 178.125 62.5 L 103.125 62.5 C 80.6875 62.5 62.5 80.6875 62.5 103.125 L 62.5 178.125 C 62.5 200.5625 80.6875 218.75 103.125 218.75 Z M 93.75 178.125 L 93.75 156.25 L 125 156.25 L 125 125 L 93.75 125 L 93.75 103.125 C 93.75 97.949219 97.949219 93.75 103.125 93.75 L 178.125 93.75 C 183.300781 93.75 187.5 97.949219 187.5 103.125 L 187.5 125 L 156.25 125 L 156.25 156.25 L 187.5 156.25 L 187.5 178.125 C 187.5 183.300781 183.300781 187.5 178.125 187.5 L 103.125 187.5 C 97.949219 187.5 93.75 183.300781 93.75 178.125 Z M 93.75 178.125 "/>
<path d="M 78.125 265.625 L 140.625 265.625 L 140.625 296.875 L 78.125 296.875 Z M 78.125 265.625 "/>
<path d="M 78.125 359.375 L 140.625 359.375 L 140.625 390.625 L 78.125 390.625 Z M 78.125 359.375 "/>
<path d="M 359.375 359.375 L 421.875 359.375 L 421.875 390.625 L 359.375 390.625 Z M 359.375 359.375 "/>
<path d="M 171.875 265.625 L 234.375 265.625 L 234.375 296.875 L 171.875 296.875 Z M 171.875 265.625 "/>
<path d="M 265.625 265.625 L 328.125 265.625 L 328.125 296.875 L 265.625 296.875 Z M 265.625 265.625 "/>
<path d="M 359.375 265.625 L 421.875 265.625 L 421.875 296.875 L 359.375 296.875 Z M 359.375 265.625 "/>
<path d="M 656.25 78.125 L 687.5 78.125 L 687.5 125 L 656.25 125 Z M 656.25 78.125 "/>
<path d="M 593.75 78.125 L 625 78.125 L 625 125 L 593.75 125 Z M 593.75 78.125 "/>
<path d="M 531.25 78.125 L 562.5 78.125 L 562.5 125 L 531.25 125 Z M 531.25 78.125 "/>
<path d="M 468.75 78.125 L 500 78.125 L 500 125 L 468.75 125 Z M 468.75 78.125 "/>
<path d="M 687.5 812.5 L 718.75 812.5 L 718.75 843.75 L 687.5 843.75 Z M 687.5 812.5 "/>
</g>
</svg>